<svg height="512" viewBox="0 0 512 512" width="512" xmlns="http://www.w3.org/2000/svg"><g id="flat"><path d="m397.352 306.843 90.648 87.459-80 92.853-48-46.982v-136.173z" fill="#f6bb92"/><path d="m375.871 254.58-50.65-23.636a40.017 40.017 0 0 1 -12.374-9.006l-21.583-23.2a118.094 118.094 0 0 0 -15.308-13.813l-48.309-36.469-124.447-124.456-79.2 79.2 174.77 191.955 1.23 100a20 20 0 0 0 40 0v8a20 20 0 0 0 40 0v8a20 20 0 0 0 40 0v32a20 20 0 0 0 40 0v-136.312h37.353l1.421-9.951a40.389 40.389 0 0 0 -22.903-42.312z" fill="#fdc9a6"/><path d="m248 351.15v64.85a7.9 7.9 0 0 1 -.49 2.76 19.927 19.927 0 0 1 -7.51-15.61v-8a19.967 19.967 0 0 1 -8 16v-60a8 8 0 0 1 16 0z" fill="#fdc9a6"/><path d="m288 359.15v64.85a7.9 7.9 0 0 1 -.49 2.76 19.927 19.927 0 0 1 -7.51-15.61v-8a19.967 19.967 0 0 1 -8 16v-60a8 8 0 0 1 16 0z" fill="#fdc9a6"/><path d="m328 367.15v92a19.967 19.967 0 0 1 -8-16v-32a19.967 19.967 0 0 1 -8 16v-60a8 8 0 0 1 16 0z" fill="#fdc9a6"/><path d="m320 411.15a19.967 19.967 0 0 1 -8 16v-60a8 8 0 0 1 8-8z" fill="#f6bb92"/><path d="m280 403.15a19.967 19.967 0 0 1 -8 16v-60a8 8 0 0 1 8-8z" fill="#f6bb92"/><path d="m240 395.15a19.967 19.967 0 0 1 -8 16v-60a8 8 0 0 1 8-8z" fill="#f6bb92"/><path d="m344 199.155a7.976 7.976 0 0 1 -5.657-2.343l-24-24a8 8 0 0 1 11.314-11.312l24 24a8 8 0 0 1 -5.657 13.655z" fill="#75c2d4"/><path d="m296 151.155a7.976 7.976 0 0 1 -5.657-2.343l-8-8a8 8 0 0 1 11.314-11.312l8 8a8 8 0 0 1 -5.657 13.655z" fill="#75c2d4"/><g fill="#f6bb92"><path d="m214.31 78.545-.96-.959a30 30 0 0 0 -32.35-6.641l-11.8 4.718a23.077 23.077 0 0 0 -10.63 34.227 23.08 23.08 0 0 0 19.2 10.277h21.59l28.285 28.284-4.674-51.409a30 30 0 0 0 -8.661-18.497z"/><rect height="80" rx="20" transform="matrix(.707 .707 -.707 .707 142.711 -19.348)" width="40" x="74.711" y="122.593"/><rect height="80" rx="20" transform="matrix(.707 .707 -.707 .707 170.995 -31.064)" width="40" x="102.995" y="150.877"/><rect height="80" rx="20" transform="matrix(.707 .707 -.707 .707 199.279 -42.78)" width="40" x="131.279" y="179.161"/><path d="m124.33 161.37-30.43 30.38c.25-.3.53-.59.81-.87l28.28-28.29c.43-.43.88-.84 1.34-1.22z"/><path d="m153.3 189.12-31.86 31.8a16.98 16.98 0 0 1 1.55-1.76l28.29-28.28a19.578 19.578 0 0 1 2.02-1.76z"/><rect height="80" rx="20" transform="matrix(.707 .707 -.707 .707 227.564 -54.495)" width="40" x="159.563" y="207.446"/></g><path d="m185.42 205.02a19.91 19.91 0 0 1 -4.34 12.43l-31.84 31.78a19.834 19.834 0 0 1 -10.02 3.97h-4.1l50.21-50.09c.06.64.09 1.27.09 1.91z" fill="#e6af89"/><path d="m151.28 190.832a19.578 19.578 0 0 1 2.02-1.76l-31.86 31.8a16.98 16.98 0 0 1 1.55-1.76 19.929 19.929 0 0 1 -15.73 5.79l49.82-49.71q.06.75.06 1.5a19.945 19.945 0 0 1 -5.86 14.14z" fill="#e6af89"/><path d="m122.99 162.542c.43-.43.88-.84 1.34-1.22l-30.43 30.378c.25-.3.53-.59.81-.87a19.961 19.961 0 0 1 -15.87 5.78l49.95-49.84c.05.54.07 1.09.07 1.63a19.931 19.931 0 0 1 -5.87 14.142z" fill="#e6af89"/></g></svg>