<svg id="Capa_1" enable-background="new 0 0 512 512" height="512" viewBox="0 0 512 512" width="512" xmlns="http://www.w3.org/2000/svg"><g><path d="m247.213 164.787c-11.716-11.716-30.71-11.716-42.426 0l-77.635 77.635h-62.152c-35.841 0-65 29.159-65 65v168.578c0 8.284 6.716 15 15 15h121c8.284 0 15-6.716 15-15v-172.573l96.213-96.214c11.716-11.716 11.716-30.711 0-42.426z" fill="#49acff"/><path d="m247.213 164.787c-11.716-11.716-30.71-11.716-42.426 0l-77.635 77.635h-51.652v248.578h60.5c8.284 0 15-6.716 15-15v-172.573l96.213-96.214c11.716-11.716 11.716-30.711 0-42.426z" fill="#1790e7"/><g><g><path d="m256 91c-8.284 0-15-6.716-15-15v-40c0-8.284 6.716-15 15-15s15 6.716 15 15v40c0 8.284-6.716 15-15 15z" fill="#5d6787"/></g><g><path d="m201.014 111.003c-5.185 0-10.226-2.69-13.004-7.503l-20-34.641c-4.142-7.174-1.684-16.349 5.49-20.49 7.174-4.145 16.349-1.685 20.49 5.49l20 34.641c4.142 7.174 1.684 16.349-5.49 20.49-2.362 1.364-4.941 2.013-7.486 2.013z" fill="#5d6787"/></g><g><path d="m310.986 111.003c-2.545 0-5.124-.648-7.486-2.013-7.174-4.142-9.632-13.316-5.49-20.49l20-34.641c4.142-7.175 13.315-9.635 20.49-5.49 7.174 4.142 9.632 13.316 5.49 20.49l-20 34.641c-2.778 4.813-7.82 7.503-13.004 7.503z" fill="#5d6787"/></g></g><g><path d="m447 242.422h-62.152l-77.635-77.635c-11.716-11.716-30.71-11.716-42.426 0-11.716 11.716-11.716 30.71 0 42.426l96.213 96.214v172.573c0 8.284 6.716 15 15 15h121c8.284 0 15-6.716 15-15v-168.578c0-35.841-29.159-65-65-65z" fill="#aadc1e"/><g><path d="m447 242.422h-10.5v248.578h60.5c8.284 0 15-6.716 15-15v-168.578c0-35.841-29.159-65-65-65z" fill="#8cc314"/></g><g><path d="m436.5 272.421c-35.841 0-65-29.159-65-65s29.159-65 65-65 65 29.159 65 65-29.159 65-65 65z" fill="#ffd5b6"/></g><g><path d="m436.5 142.421v130c35.841 0 65-29.159 65-65s-29.159-65-65-65z" fill="#ffc896"/></g></g><g><path d="m75.5 272.421c-35.841 0-65-29.159-65-65s29.159-65 65-65 65 29.159 65 65-29.159 65-65 65z" fill="#ffd5b6"/></g><g><path d="m75.5 142.421v130c35.841 0 65-29.159 65-65s-29.159-65-65-65z" fill="#ffc896"/></g></g></svg>